<svg width="26" height="21" viewBox="0 0 26 21" fill="none" xmlns="http://www.w3.org/2000/svg">
<path d="M5.66662 5.1863C7.61508 3.56734 9.79134 2.32693 11.2633 1.57568C12.3361 1.02816 13.6638 1.02816 14.7366 1.57568C16.2086 2.32693 18.3848 3.56734 20.3333 5.1863C24.5578 8.69638 24.3333 10.7255 24.3333 14.0491C24.3333 15.611 24.1861 16.9282 24.03 17.8857C23.8658 18.8933 22.8082 19.5883 21.5845 19.5883H19.6666C18.1939 19.5883 17 18.5963 17 17.3726V15.1569C17 14.2755 16.5785 13.4301 15.8284 12.8068C15.0782 12.1836 14.0608 11.8334 13 11.8334C11.9391 11.8334 10.9217 12.1836 10.1715 12.8068C9.42138 13.4301 8.99995 14.2755 8.99995 15.1569V17.3726C8.99995 18.5963 7.80604 19.5883 6.33328 19.5883H4.41536C3.19171 19.5883 2.13415 18.8932 1.96993 17.8857C1.81385 16.9282 1.66662 15.611 1.66662 14.0491C1.66662 10.7255 1.44209 8.6964 5.66662 5.1863Z" stroke="#FF4200" stroke-width="2.18293" stroke-linecap="round" stroke-linejoin="round"/>
</svg>
